<?xml version="1.0" standalone="no"?>
<!DOCTYPE svg PUBLIC "-//W3C//DTD SVG 20010904//EN"
 "http://www.w3.org/TR/2001/REC-SVG-20010904/DTD/svg10.dtd">
<svg version="1.0" xmlns="http://www.w3.org/2000/svg"
 width="400.000000pt" height="400.000000pt" viewBox="0 0 400.000000 400.000000"
 preserveAspectRatio="xMidYMid meet">

<g transform="translate(0.000000,400.000000) scale(0.100000,-0.100000)"
fill="#000000" stroke="none">
<path d="M1894 3291 c-443 -192 -822 -467 -1123 -816 l-86 -99 -3 -67 c-6 -92
15 -320 39 -448 81 -419 255 -795 513 -1105 28 -33 42 -37 316 -67 355 -39
921 -22 1177 36 19 5 91 86 146 165 213 309 345 624 411 980 22 119 36 273 36
397 0 116 4 107 -86 207 -143 158 -299 307 -417 399 -218 168 -480 323 -707
417 -30 13 -59 26 -65 30 -28 19 -50 14 -151 -29z m221 -271 c263 -30 489
-138 677 -323 264 -261 385 -640 322 -1008 -98 -570 -611 -979 -1184 -945
-507 30 -923 386 -1042 890 -26 109 -31 362 -10 461 34 159 118 352 202 466
67 90 190 208 282 269 111 75 193 114 316 150 155 47 277 58 437 40z"/>
<path d="M1871 2898 c1 -24 5 -54 9 -68 8 -24 8 -24 9 6 2 51 61 64 61 14 0
-16 5 -30 10 -30 6 0 10 27 10 60 0 33 -4 60 -10 60 -5 0 -10 -11 -10 -25 0
-21 -5 -25 -30 -25 -25 0 -30 4 -30 25 0 14 -4 25 -10 25 -5 0 -10 -19 -9 -42z"/>
<path d="M2070 2918 c0 -13 -3 -40 -6 -60 -4 -24 -3 -38 4 -38 6 0 12 10 14
22 5 35 33 34 48 -2 7 -16 16 -30 21 -30 12 0 12 4 -8 46 -17 36 -17 36 6 55
15 13 18 19 9 19 -8 0 -23 -9 -33 -20 -24 -27 -35 -25 -35 5 0 14 -4 25 -10
25 -5 0 -10 -10 -10 -22z"/>
<path d="M1757 2913 c-3 -5 -7 -35 -11 -68 -6 -57 -5 -59 10 -37 18 24 53 29
72 10 25 -25 18 -1 -14 50 -32 49 -47 61 -57 45z m43 -65 c0 -4 -9 -8 -20 -8
-21 0 -24 8 -13 36 6 16 7 16 20 -2 7 -10 13 -21 13 -26z"/>
<path d="M2217 2913 c-2 -4 -7 -25 -11 -46 -4 -21 -9 -44 -12 -51 -3 -8 11
-16 41 -23 25 -6 45 -7 45 -3 0 4 -13 10 -30 14 -22 4 -30 11 -30 27 0 19 4
20 35 15 21 -4 35 -3 35 3 0 5 -12 11 -27 13 -18 2 -29 10 -31 22 -4 17 0 18
32 13 20 -3 36 -2 36 4 0 5 -8 9 -17 9 -10 0 -28 3 -39 6 -12 3 -24 2 -27 -3z"/>
<path d="M1597 2862 c-23 -25 -21 -54 4 -86 25 -31 47 -33 82 -6 17 14 23 26
20 40 -6 22 -37 27 -49 8 -5 -8 -2 -9 9 -5 21 8 32 -10 17 -28 -18 -21 -57
-18 -70 4 -25 47 2 87 50 74 16 -4 21 -3 16 5 -11 18 -61 14 -79 -6z"/>
<path d="M2386 2836 c-9 -21 -16 -42 -16 -47 0 -21 -25 -20 -41 2 -13 17 -19
20 -19 9 0 -21 20 -40 43 -40 19 0 62 81 54 103 -2 7 -12 -5 -21 -27z"/>
<path d="M2446 2815 c-9 -14 -19 -38 -22 -54 -5 -24 -1 -32 20 -46 14 -10 32
-15 40 -12 18 7 67 95 56 102 -5 3 -19 -14 -32 -37 -43 -78 -89 -52 -50 28 23
47 15 60 -12 19z"/>
<path d="M1510 2827 c0 -5 7 -22 16 -38 8 -17 13 -33 11 -36 -3 -2 -23 6 -45
19 -23 12 -44 20 -47 16 -8 -8 45 -108 57 -108 5 0 -1 18 -12 40 -23 45 -19
48 28 20 57 -35 68 -27 37 28 -29 50 -45 71 -45 59z"/>
<path d="M1887 2759 c-395 -58 -704 -375 -758 -778 -51 -385 158 -764 513
-931 233 -109 539 -108 757 3 312 158 494 434 508 772 11 253 -68 474 -237
659 -192 209 -498 317 -783 275z m152 -145 c8 -18 10 -60 6 -133 -8 -131 -12
-151 -30 -151 -12 0 -15 15 -17 68 l-2 67 -3 -67 c-3 -44 -8 -68 -16 -69 -7 0
-22 -2 -34 -5 -14 -2 -23 2 -26 14 -4 13 -5 11 -6 -5 -1 -24 -26 -32 -34 -10
-4 8 -6 6 -6 -4 -1 -13 -38 -39 -57 -39 -5 0 -80 151 -89 180 -10 32 13 23 36
-12 15 -25 19 -27 14 -10 -6 22 -5 23 14 13 12 -7 21 -19 22 -29 0 -11 2 -12
6 -4 3 8 9 9 16 4 30 -22 48 -21 59 3 13 29 25 32 32 8 2 -10 2 -2 -1 18 -3
22 0 40 6 44 6 3 19 23 28 43 l16 37 7 -35 c7 -34 7 -33 9 13 1 48 14 87 30
87 4 0 13 -12 20 -26z m47 -128 c-2 -23 -1 -29 1 -13 2 15 8 27 13 27 12 0 21
-28 16 -53 -1 -12 -1 -16 1 -9 6 16 23 16 23 -1 0 -28 22 -37 51 -21 16 8 29
11 29 7 0 -5 5 0 11 10 5 9 17 17 25 17 13 0 13 -4 1 -27 -8 -16 -17 -39 -21
-53 -4 -14 6 2 22 35 28 58 62 100 62 76 0 -6 -21 -52 -46 -102 -25 -50 -43
-93 -41 -96 3 -2 31 48 64 112 42 84 66 121 86 131 26 14 27 14 27 -12 0 -17
-28 -70 -70 -137 -39 -60 -69 -111 -67 -113 2 -2 30 36 63 85 32 50 62 90 67
91 17 1 4 -36 -29 -84 l-36 -51 35 40 c29 32 36 36 37 21 0 -11 -8 -28 -17
-38 -16 -18 -16 -18 0 -12 32 12 18 -21 -28 -66 -38 -37 -47 -42 -55 -30 -5 8
-10 18 -10 22 0 5 -3 7 -7 6 -5 -1 -30 10 -58 24 -27 14 -68 31 -90 38 -22 7
-43 18 -47 24 -6 8 -8 8 -8 0 0 -6 -10 -9 -23 -7 -21 4 -22 7 -15 91 3 48 7
101 7 117 2 28 2 29 16 11 9 -11 13 -35 11 -60z m-344 -94 c38 -77 54 -120 48
-126 -14 -14 -26 1 -100 118 -77 122 -88 174 -32 140 19 -10 45 -52 84 -132z
m-38 -48 c55 -80 66 -104 47 -104 -11 0 -111 -97 -106 -102 2 -2 -5 -14 -15
-28 l-19 -25 -113 55 c-142 68 -194 120 -120 120 16 0 70 -28 136 -71 59 -39
110 -68 112 -66 3 2 -36 30 -86 62 -49 32 -90 62 -90 67 0 19 37 5 89 -33 l56
-41 -45 41 -45 40 54 -3 c33 -1 58 2 65 10 9 10 19 6 46 -19 l35 -32 -37 40
c-21 23 -38 50 -38 60 0 17 4 16 26 -10 l26 -30 -26 37 c-31 44 -36 78 -8 57
16 -13 16 -13 0 7 -18 20 -26 77 -9 59 4 -6 34 -47 65 -91z m385 -57 c18 4 21
1 21 -23 0 -21 3 -25 9 -15 7 11 10 10 14 -5 4 -16 5 -16 6 4 0 12 6 22 12 22
8 0 9 -14 5 -42 -4 -23 -4 -39 0 -35 4 4 14 1 22 -6 13 -10 14 -9 8 1 -6 9 4
12 42 11 41 -2 49 -5 44 -18 -5 -13 -3 -14 9 -4 13 10 20 10 35 -1 10 -8 15
-18 11 -22 -4 -5 -12 -3 -16 4 -5 9 -14 5 -31 -13 -13 -14 -30 -23 -37 -21 -7
3 -13 1 -13 -4 0 -11 80 -5 89 7 10 14 53 14 49 1 -3 -7 -11 -13 -19 -13 -38
0 -44 -49 -8 -60 12 -4 19 -16 19 -30 0 -16 4 -23 13 -19 8 3 20 -3 28 -12 13
-16 12 -17 -6 -10 -16 6 -17 5 -8 -5 10 -10 16 -9 29 1 14 12 16 12 12 -6 -1
-12 3 -28 11 -38 8 -9 11 -19 7 -23 -3 -4 -13 3 -22 15 -8 12 -21 22 -27 22
-7 0 -4 -7 6 -14 25 -19 21 -26 -16 -26 -40 0 -74 29 -55 48 18 18 28 15 21
-5 -5 -15 -3 -16 7 -6 11 10 9 17 -13 37 -15 14 -27 22 -27 19 0 -4 -14 6 -30
22 -17 16 -28 35 -25 43 3 8 -7 17 -25 24 -17 5 -30 16 -30 23 0 7 -14 18 -30
24 -17 5 -33 16 -36 24 -3 9 -14 12 -29 9 -19 -3 -27 1 -34 19 l-10 24 -1 -25
c0 -20 -2 -22 -10 -10 -9 13 -11 13 -20 0 -7 -11 -12 -12 -21 -3 -9 9 -18 9
-40 -3 -16 -8 -29 -10 -29 -5 0 5 5 11 12 13 8 3 8 9 0 24 -6 10 -12 14 -12 7
0 -6 -7 -19 -16 -27 -9 -9 -11 -16 -4 -16 6 0 8 -5 5 -10 -3 -6 -17 -7 -30 -4
-16 4 -26 0 -33 -12 -9 -15 -14 -16 -36 -6 -14 6 -26 16 -26 22 0 6 -8 5 -20
-2 -11 -7 -20 -17 -20 -22 0 -6 5 -5 12 2 8 8 18 7 40 -6 28 -16 39 -37 16
-30 -7 3 -21 -6 -31 -19 -10 -13 -25 -23 -32 -23 -8 0 -19 -19 -26 -42 -6 -24
-18 -58 -26 -77 -13 -30 -18 -32 -45 -27 -17 3 -39 6 -49 6 -21 0 -27 34 -8
46 6 3 8 17 4 31 -5 21 -3 23 12 15 19 -10 43 -6 43 8 0 4 -9 6 -21 3 -18 -5
-19 -2 -13 23 4 16 11 31 16 32 4 2 8 10 8 18 0 20 20 17 21 -3 1 -17 2 -17 6
0 2 9 9 17 14 17 19 0 38 27 33 46 -6 23 42 78 61 70 7 -2 16 2 19 10 8 22 28
17 21 -5 -8 -26 40 -60 58 -42 8 8 8 11 -2 11 -7 0 -9 5 -6 10 3 6 -3 10 -15
10 -28 0 -21 23 8 25 12 1 30 9 40 18 11 10 28 15 44 12 16 -3 32 1 40 9 9 9
20 11 34 5 12 -4 31 -5 43 -2z m-179 -17 c0 -5 -4 -10 -10 -10 -5 0 -10 5 -10
10 0 6 5 10 10 10 6 0 10 -4 10 -10z m512 -20 c6 0 3 -10 -8 -22 l-19 -23 26
23 c18 16 38 22 70 22 l44 0 -30 -26 -30 -26 36 25 c19 14 43 27 52 29 37 7
16 -15 -67 -72 -80 -54 -91 -59 -105 -46 -13 14 -13 18 5 38 l19 23 -21 -18
c-20 -16 -21 -16 -37 1 -23 25 -22 31 16 70 24 25 33 29 35 18 2 -9 8 -16 14
-16z m-226 -5 c-4 -11 2 -15 27 -15 24 0 28 -3 17 -10 -8 -5 -26 -10 -40 -10
-21 0 -26 5 -26 25 0 15 6 25 14 25 8 0 12 -6 8 -15z m486 -5 c-7 -28 -27 -42
-144 -101 -75 -38 -119 -55 -124 -48 -9 15 6 28 123 102 98 62 152 79 145 47z
m-1164 -119 c50 -24 92 -48 92 -52 0 -4 -6 -14 -12 -21 -7 -7 -14 -24 -16 -38
-1 -14 -10 -31 -19 -37 -9 -7 -12 -13 -7 -13 5 0 10 -9 11 -20 1 -14 -5 -20
-20 -21 -22 -2 -22 -2 1 -6 12 -2 20 -9 17 -14 -4 -5 19 -9 52 -10 32 0 81 -2
108 -4 28 -2 42 -1 32 2 -15 4 -18 11 -13 36 4 18 7 38 8 45 1 6 5 12 10 12 4
0 8 7 8 16 0 11 5 14 16 10 14 -5 15 -4 4 9 -8 9 -8 15 -2 15 6 0 18 13 28 29
16 26 74 70 74 55 0 -3 7 -1 15 6 8 6 20 8 26 4 7 -4 9 -3 5 4 -8 14 73 27
112 18 74 -17 120 -36 126 -52 3 -9 11 -12 18 -8 8 5 9 2 5 -9 -4 -10 -2 -14
7 -11 14 5 64 -60 71 -92 2 -10 8 -34 14 -51 9 -31 8 -33 -13 -33 -19 0 -24 7
-29 35 -9 53 -69 130 -123 155 -62 30 -155 31 -207 1 -67 -38 -87 -53 -81 -62
3 -5 1 -9 -4 -9 -5 0 -20 -23 -32 -52 -49 -113 3 -244 119 -299 117 -55 251
-6 312 113 12 23 21 56 22 73 l1 32 103 7 c57 4 108 4 113 1 6 -4 7 11 3 37
-4 24 -7 53 -7 66 -1 12 -4 22 -8 22 -6 0 -31 62 -26 65 2 0 47 22 102 48 96
46 134 54 89 17 -12 -9 -19 -20 -16 -24 3 -3 -2 -15 -12 -26 -10 -11 -14 -20
-9 -20 5 -1 0 -8 -11 -18 -29 -25 -27 -49 6 -63 16 -6 29 -15 29 -19 0 -4 10
-11 23 -15 l22 -7 -25 -8 c-21 -7 -17 -8 22 -9 86 -2 60 -19 -39 -26 -141 -9
-137 -15 7 -13 89 2 132 -2 149 -11 24 -13 24 -14 6 -27 -12 -9 -50 -15 -99
-16 -71 -2 -73 -2 -23 -5 40 -3 57 -8 54 -16 -2 -7 -12 -14 -22 -16 -10 -2
-25 -9 -33 -17 -7 -8 -20 -14 -28 -14 -8 0 -14 -4 -14 -8 0 -5 -13 -15 -30
-23 l-30 -14 25 -49 c14 -27 23 -51 21 -54 -3 -2 7 -14 22 -27 29 -25 26 -43
-5 -26 -47 26 -167 82 -158 73 6 -5 56 -33 112 -62 93 -48 107 -59 117 -99 1
-2 -8 -5 -19 -7 -16 -2 -114 56 -405 245 -13 9 -21 11 -17 4 13 -21 -84 -107
-136 -120 -62 -15 -148 -15 -172 1 -14 9 -25 14 -25 11 0 -3 -13 1 -30 10 -31
16 -96 75 -94 85 4 12 -61 -27 -296 -179 -90 -58 -140 -76 -140 -48 1 29 43
59 168 121 72 36 132 68 132 71 0 3 -39 -14 -87 -38 -132 -66 -163 -80 -168
-75 -12 11 27 38 108 73 48 21 85 40 83 42 -2 2 -20 -3 -40 -12 -20 -8 -52
-22 -72 -30 -20 -9 -39 -14 -42 -11 -8 9 19 36 37 36 9 0 23 5 31 10 11 8 7 9
-14 4 -25 -6 -28 -4 -23 10 4 9 10 23 13 31 5 11 -3 19 -25 28 -17 6 -31 15
-31 19 0 4 -7 8 -15 8 -9 0 -18 6 -21 14 -3 8 -18 16 -35 20 -50 10 -32 25 34
29 57 3 55 3 -21 5 -46 1 -93 7 -104 13 l-21 11 24 19 c20 15 39 18 129 15 58
-2 83 -2 55 0 -80 6 -116 14 -110 25 4 5 17 9 31 9 13 0 23 5 22 12 -2 6 6 14
17 16 11 2 24 11 28 19 6 10 18 13 35 9 15 -4 22 -3 15 1 -7 5 -11 17 -9 28 2
11 0 22 -3 25 -4 3 -18 23 -31 44 -26 43 -27 42 35 22 11 -3 4 2 -16 12 -43
21 -69 41 -69 53 0 10 4 8 128 -50z m203 12 c-9 -16 -10 -15 -11 8 0 14 3 29
8 33 12 12 14 -22 3 -41z m705 -101 c10 -14 11 -23 3 -27 -5 -4 -13 2 -15 12
-3 11 -21 27 -39 38 -19 10 -32 22 -29 26 6 11 62 -23 80 -49z m-371 28 c-15
-16 -19 -17 -31 -5 -20 19 -18 22 17 23 30 1 30 0 14 -18z m-95 -46 c4 -34 10
-50 21 -52 13 -2 15 3 12 22 -3 14 -9 23 -14 20 -5 -3 -9 4 -9 16 0 14 4 19
12 14 8 -5 9 -2 5 9 -7 20 8 32 19 15 4 -6 8 -23 10 -37 1 -14 2 -31 3 -37 1
-9 32 -11 51 -4 3 1 9 2 14 1 5 -1 13 4 17 11 12 18 22 3 14 -21 -4 -14 -16
-22 -33 -23 -15 0 -31 -2 -37 -2 -20 -3 -35 -18 -35 -36 0 -13 -5 -17 -20 -13
-11 3 -20 1 -20 -3 0 -13 20 -41 20 -29 0 6 5 2 11 -7 11 -19 54 -24 64 -8 4
6 -5 10 -19 10 -17 0 -26 6 -26 16 0 8 4 13 9 10 5 -4 15 7 23 24 15 34 38 38
64 13 16 -17 17 -14 12 44 -4 37 -13 69 -22 78 -9 9 -16 12 -16 6 0 -23 -2
-26 -23 -38 -30 -17 -46 -16 -23 2 10 7 15 18 11 24 -3 6 6 16 22 22 24 9 31
7 50 -15 12 -14 26 -26 31 -26 13 0 24 -29 16 -41 -3 -5 -10 -7 -15 -4 -5 4
-9 -1 -9 -11 0 -15 2 -15 25 0 34 22 56 20 26 -3 -25 -19 -16 -36 13 -25 9 3
16 1 16 -5 0 -6 -4 -11 -10 -11 -16 0 -11 -42 6 -55 13 -9 14 -16 6 -31 -11
-18 -11 -17 -13 6 -1 19 -4 15 -12 -17 -7 -23 -21 -51 -31 -62 -12 -13 -14
-21 -7 -21 7 0 9 -5 6 -10 -5 -8 -11 -7 -21 1 -16 13 -68 3 -59 -12 4 -5 16
-7 28 -3 20 6 21 5 7 -12 -8 -10 -16 -21 -17 -23 -2 -2 -11 6 -22 18 -20 23
-36 15 -25 -14 5 -11 2 -16 -7 -14 -8 2 -24 -1 -37 -5 -14 -5 -28 -3 -37 4
-17 14 -20 60 -5 60 6 0 10 -6 10 -14 0 -27 26 -23 63 9 33 29 35 33 18 38
-11 2 -24 0 -30 -6 -7 -7 -18 -7 -34 0 -14 7 -29 8 -38 2 -8 -5 -26 -9 -41 -9
-15 0 -30 -5 -33 -10 -4 -6 -11 -8 -16 -4 -5 3 -7 10 -4 15 4 5 -1 12 -9 15
-9 3 -16 15 -16 25 0 11 -7 22 -15 25 -8 4 -15 13 -15 21 0 8 5 11 10 8 16
-10 12 11 -5 25 -8 7 -15 19 -15 27 0 13 3 13 15 3 13 -10 15 -9 15 9 0 12 -4
19 -10 16 -16 -10 -12 6 11 50 22 42 85 98 103 92 6 -2 13 -26 16 -53z m430
16 c0 -5 -5 -10 -11 -10 -5 0 -7 5 -4 10 3 6 8 10 11 10 2 0 4 -4 4 -10z m-60
-49 c0 -6 -4 -13 -10 -16 -5 -3 -10 1 -10 9 0 9 5 16 10 16 6 0 10 -4 10 -9z
m-370 -248 c0 -15 -36 -31 -47 -21 -21 17 -15 25 17 26 17 0 30 -2 30 -5z m64
-14 c-8 -14 -24 -10 -24 6 0 9 6 12 15 9 8 -4 12 -10 9 -15z m-64 -25 c0 -8
-4 -12 -10 -9 -5 3 -10 10 -10 16 0 5 5 9 10 9 6 0 10 -7 10 -16z m-183 -36
c-7 -21 12 -48 36 -48 12 -1 33 -7 46 -14 13 -7 33 -11 44 -8 14 3 18 1 13 -6
-4 -7 -16 -12 -26 -12 -10 0 -21 -4 -25 -10 -3 -5 15 -3 41 5 46 14 74 11 74
-7 0 -5 10 -6 23 -2 50 16 52 16 32 -2 -21 -18 -15 -16 48 10 39 17 48 12 20
-11 -14 -11 -14 -13 -3 -10 8 2 20 12 25 23 16 31 42 26 43 -8 1 -29 20 -63
30 -53 3 2 -1 11 -8 20 -7 9 -10 19 -6 23 9 8 36 -26 36 -45 0 -8 -7 -16 -15
-18 -8 -3 -23 -8 -32 -12 -10 -3 -24 -5 -31 -4 -7 1 -12 -2 -11 -6 3 -20 -2
-24 -16 -13 -11 9 -15 9 -15 1 0 -7 -6 -11 -12 -10 -7 2 -28 -1 -46 -5 -26 -6
-38 -4 -54 11 -12 10 -18 12 -14 6 4 -8 2 -13 -4 -13 -14 0 -4 53 11 58 5 2 9
13 8 25 0 16 -6 10 -22 -23 -20 -41 -57 -67 -57 -41 0 6 7 11 15 11 23 0 18
16 -5 17 -12 1 -20 -4 -20 -13 0 -20 -50 -8 -72 18 -10 11 -18 17 -18 14 0 -4
-5 -4 -11 0 -8 5 -8 9 1 14 8 5 1 10 -19 15 -18 4 -37 15 -44 26 -6 10 -20 19
-29 19 -28 0 -23 45 7 64 14 9 30 14 35 11 5 -3 11 -1 15 5 9 14 18 12 12 -2z
m498 -19 c6 0 25 -7 43 -16 33 -16 44 -43 17 -43 -8 0 -15 -7 -15 -16 0 -8 -4
-13 -9 -9 -5 3 -13 -4 -16 -16 -5 -16 -13 -20 -31 -16 -13 2 -21 0 -18 -4 3
-5 1 -9 -4 -9 -5 0 -21 18 -36 40 -18 27 -22 40 -13 40 8 0 19 -12 26 -27 l13
-28 12 23 c9 17 14 20 24 10 9 -9 12 -9 12 0 0 17 -43 33 -51 19 -4 -5 -10 0
-14 12 -7 23 4 45 12 24 5 -14 24 -18 22 -5 -1 4 -1 18 1 32 1 21 3 22 9 7 4
-10 11 -18 16 -18z m-455 -4 c10 -13 9 -15 -9 -15 -12 0 -21 6 -21 15 0 8 4
15 9 15 5 0 14 -7 21 -15z m-169 -47 c24 -26 24 -26 -3 -57 l-23 -26 28 24 27
24 27 -24 c15 -13 34 -31 43 -40 8 -8 23 -18 33 -22 15 -6 11 -20 -43 -126
-51 -103 -79 -141 -104 -141 -3 0 -6 14 -6 30 0 20 17 56 48 103 59 88 65 97
58 97 -3 0 -26 -33 -53 -72 -39 -60 -48 -69 -51 -51 -2 15 13 43 44 85 27 34
43 58 36 54 -6 -4 -26 -27 -43 -51 -35 -49 -54 -59 -39 -21 6 17 5 26 -3 29
-9 3 -9 9 1 26 7 12 8 21 2 21 -5 0 -10 6 -10 14 0 16 -59 26 -89 14 -35 -13
-23 6 29 46 28 21 50 40 50 43 0 3 -6 1 -12 -4 -7 -6 -37 -29 -66 -51 -50 -39
-98 -56 -90 -32 3 9 177 130 187 130 2 0 12 -10 22 -22z m854 -40 c52 -34 95
-65 95 -69 0 -17 -99 -3 -122 16 -13 11 -17 13 -10 5 16 -18 15 -30 -1 -30 -7
0 -35 23 -62 50 -27 28 -44 50 -38 50 6 0 15 9 18 20 3 11 11 20 16 20 5 0 52
-28 104 -62z m-110 -32 c35 -30 38 -35 24 -49 -10 -10 -15 -30 -13 -61 2 -25
1 -46 -2 -46 -3 0 -16 12 -31 28 -18 19 -16 15 6 -14 30 -40 40 -74 23 -74 -5
0 -35 40 -67 90 -33 49 -61 87 -63 85 -3 -2 27 -54 67 -115 81 -127 93 -175
36 -154 -14 6 -135 231 -135 252 0 14 81 63 92 55 7 -3 8 -1 4 5 -7 12 0 32
12 32 4 0 25 -15 47 -34z m-552 -77 c12 -7 25 -17 29 -23 5 -8 8 -7 8 1 0 22
30 2 31 -21 l0 -21 9 21 c6 17 15 20 40 16 l32 -5 -7 -111 c-4 -61 -10 -115
-12 -120 -8 -12 -23 15 -23 41 0 13 -5 22 -12 20 -9 -1 -13 11 -12 38 1 22 0
32 -3 23 -6 -24 -20 -22 -34 5 -6 12 -13 24 -15 25 -1 2 -23 -8 -49 -23 -50
-30 -63 -28 -45 5 6 12 10 24 7 26 -2 3 -11 -12 -20 -34 -15 -38 -43 -70 -52
-60 -7 7 88 207 98 208 5 0 18 -5 30 -11z m437 -90 c28 -56 50 -103 50 -105 0
-2 -6 -4 -14 -4 -8 0 -27 27 -42 60 -15 33 -29 58 -31 56 -3 -2 3 -18 11 -35
22 -42 21 -54 -4 -41 -11 6 -20 21 -21 33 0 18 -2 19 -7 5 -9 -23 -26 -10 -40
32 l-11 35 5 -32 c4 -26 2 -32 -8 -28 -9 4 -19 -5 -27 -22 -10 -22 -14 -24
-23 -12 -8 12 -9 12 -5 -1 2 -8 0 -26 -6 -40 -10 -25 -10 -25 -17 10 -7 31 -7
28 -7 -17 1 -49 -6 -73 -18 -61 -3 3 -8 51 -12 107 -3 55 -10 101 -14 101 -5
0 -7 -6 -4 -12 2 -7 6 -65 9 -128 5 -103 4 -118 -13 -139 l-19 -24 -14 29
c-12 24 -13 50 -4 159 l11 130 35 1 c19 1 53 5 75 9 22 5 48 8 57 9 9 0 15 3
12 7 -4 7 12 14 39 18 4 0 30 -44 57 -100z"/>
<path d="M1932 2380 c0 -14 2 -19 5 -12 2 6 2 18 0 25 -3 6 -5 1 -5 -13z"/>
<path d="M1790 2375 c0 -5 5 -17 10 -25 5 -8 10 -10 10 -5 0 6 -5 17 -10 25
-5 8 -10 11 -10 5z"/>
<path d="M2072 2390 c0 -14 2 -19 5 -12 2 6 2 18 0 25 -3 6 -5 1 -5 -13z"/>
<path d="M2344 2268 l-19 -23 23 19 c21 18 27 26 19 26 -2 0 -12 -10 -23 -22z"/>
<path d="M1660 2346 c0 -2 8 -10 18 -17 15 -13 16 -12 3 4 -13 16 -21 21 -21
13z"/>
<path d="M1710 2276 c0 -2 8 -10 18 -17 15 -13 16 -12 3 4 -13 16 -21 21 -21
13z"/>
<path d="M1625 2190 c10 -11 20 -20 23 -20 3 0 -3 9 -13 20 -10 11 -20 20 -23
20 -3 0 3 -9 13 -20z"/>
<path d="M2053 2262 c10 -10 17 -23 17 -29 0 -6 6 -13 14 -16 9 -4 13 0 11 11
-2 9 -4 22 -4 29 -1 7 -8 10 -16 7 -8 -4 -15 -1 -15 5 0 6 -5 11 -12 11 -6 0
-4 -7 5 -18z"/>
<path d="M1970 2253 c0 -6 -8 -9 -19 -6 -10 3 -22 0 -25 -6 -5 -7 -1 -8 10 -4
10 4 22 0 29 -11 12 -16 13 -16 19 0 4 10 2 22 -4 28 -7 7 -10 7 -10 -1z"/>
<path d="M2008 2235 c2 -14 8 -22 13 -19 5 3 5 14 -1 25 -14 26 -18 24 -12 -6z"/>
<path d="M2040 2236 c0 -8 4 -17 9 -20 5 -4 7 3 4 14 -6 23 -13 26 -13 6z"/>
<path d="M1790 2211 c0 -4 13 -20 29 -35 26 -25 29 -26 33 -8 4 14 -3 23 -28
34 -19 9 -34 12 -34 9z"/>
<path d="M2106 2204 c-4 -10 -1 -14 6 -12 15 5 23 28 10 28 -5 0 -13 -7 -16
-16z"/>
<path d="M1765 2179 c-11 -17 1 -21 15 -4 8 9 8 15 2 15 -6 0 -14 -5 -17 -11z"/>
<path d="M2234 2171 c9 -14 -16 -19 -48 -10 -16 5 -32 7 -34 4 -7 -7 79 -27
94 -21 15 6 8 36 -8 36 -5 0 -7 -4 -4 -9z"/>
<path d="M1729 2093 c-17 -4 -44 -83 -29 -83 5 0 11 -10 14 -22 3 -13 3 -2 2
24 -4 58 4 72 38 66 17 -4 25 -1 23 6 -4 12 -24 16 -48 9z"/>
<path d="M1670 2055 c0 -8 2 -15 4 -15 2 0 6 7 10 15 3 8 1 15 -4 15 -6 0 -10
-7 -10 -15z"/>
<path d="M2290 2051 c5 -11 15 -23 21 -27 6 -3 3 5 -6 20 -20 30 -30 35 -15 7z"/>
<path d="M1639 1978 c-9 -30 -4 -36 27 -40 19 -2 34 0 34 4 0 4 -11 8 -25 8
-26 0 -34 15 -12 23 7 3 5 6 -5 6 -10 1 -18 0 -19 -1z"/>
<path d="M2449 2223 c-13 -16 -12 -17 4 -4 9 7 17 15 17 17 0 8 -8 3 -21 -13z"/>
<path d="M2365 2190 c-3 -6 1 -7 9 -4 18 7 21 14 7 14 -6 0 -13 -4 -16 -10z"/>
<path d="M2449 2183 c-13 -16 -12 -17 4 -4 9 7 17 15 17 17 0 8 -8 3 -21 -13z"/>
<path d="M2565 2110 c-3 -6 1 -7 9 -4 18 7 21 14 7 14 -6 0 -13 -4 -16 -10z"/>
<path d="M1510 2090 c8 -5 20 -10 25 -10 6 0 3 5 -5 10 -8 5 -19 10 -25 10 -5
0 -3 -5 5 -10z"/>
<path d="M1488 2063 c7 -3 16 -2 19 1 4 3 -2 6 -13 5 -11 0 -14 -3 -6 -6z"/>
<path d="M1518 1973 c7 -3 16 -2 19 1 4 3 -2 6 -13 5 -11 0 -14 -3 -6 -6z"/>
<path d="M1463 1923 c9 -2 23 -2 30 0 6 3 -1 5 -18 5 -16 0 -22 -2 -12 -5z"/>
<path d="M1673 1853 c9 -2 25 -2 35 0 9 3 1 5 -18 5 -19 0 -27 -2 -17 -5z"/>
<path d="M2343 1853 c9 -2 25 -2 35 0 9 3 1 5 -18 5 -19 0 -27 -2 -17 -5z"/>
<path d="M1488 1843 c23 -2 59 -2 80 0 20 2 1 4 -43 4 -44 0 -61 -2 -37 -4z"/>
<path d="M2473 1843 c20 -2 54 -2 75 0 20 2 3 4 -38 4 -41 0 -58 -2 -37 -4z"/>
<path d="M1513 1813 c9 -2 23 -2 30 0 6 3 -1 5 -18 5 -16 0 -22 -2 -12 -5z"/>
<path d="M1423 1803 c9 -2 23 -2 30 0 6 3 -1 5 -18 5 -16 0 -22 -2 -12 -5z"/>
<path d="M2518 1783 c7 -3 16 -2 19 1 4 3 -2 6 -13 5 -11 0 -14 -3 -6 -6z"/>
<path d="M1438 1773 c7 -3 16 -2 19 1 4 3 -2 6 -13 5 -11 0 -14 -3 -6 -6z"/>
<path d="M2568 1773 c6 -2 18 -2 25 0 6 3 1 5 -13 5 -14 0 -19 -2 -12 -5z"/>
<path d="M1630 1700 c-8 -5 -10 -10 -5 -10 6 0 17 5 25 10 8 5 11 10 5 10 -5
0 -17 -5 -25 -10z"/>
<path d="M1530 1690 c-18 -12 -2 -12 25 0 13 6 15 9 5 9 -8 0 -22 -4 -30 -9z"/>
<path d="M2540 1635 c14 -8 30 -14 35 -14 6 0 -1 6 -15 14 -14 8 -29 14 -35
14 -5 0 1 -6 15 -14z"/>
<path d="M1906 2031 c-3 -4 3 -16 14 -26 19 -18 20 -17 20 8 0 26 -22 38 -34
18z"/>
<path d="M1860 1960 c0 -24 3 -31 9 -21 5 8 7 20 4 27 -7 18 16 28 32 14 22
-18 18 -39 -9 -49 -26 -11 -36 -30 -36 -72 0 -39 16 -69 38 -69 13 0 12 3 -6
16 -23 16 -31 67 -12 79 6 4 10 -5 10 -20 0 -24 3 -26 33 -23 29 3 32 6 29 31
-2 16 2 35 9 43 15 18 -1 18 -25 -1 -11 -8 -29 -15 -40 -15 -18 0 -16 4 12 26
l33 26 -21 24 c-33 35 -60 28 -60 -16z m66 -87 c-10 -10 -19 5 -10 18 6 11 8
11 12 0 2 -7 1 -15 -2 -18z"/>
<path d="M2156 1928 c-16 -51 -15 -63 9 -75 22 -10 25 -9 25 8 0 10 -7 19 -15
19 -8 0 -15 5 -15 11 0 6 7 9 15 5 19 -7 19 11 0 30 -12 12 -16 13 -19 2z"/>
<path d="M2086 1905 c4 -8 10 -12 15 -9 11 6 2 24 -11 24 -5 0 -7 -7 -4 -15z"/>
<path d="M2112 1874 c-7 -8 -8 -14 -2 -14 5 0 10 -8 10 -17 0 -15 -2 -16 -10
-3 -8 12 -12 11 -32 -7 -36 -34 -80 -34 -95 -1 -8 19 -10 20 -16 5 -3 -9 -2
-17 3 -17 21 0 9 -18 -16 -24 -15 -4 -24 -10 -21 -13 4 -3 20 0 37 7 22 9 34
9 43 2 10 -9 19 -7 35 4 13 9 22 11 22 5 0 -6 5 -11 10 -11 6 0 10 7 10 15 0
8 5 15 11 15 7 0 10 -12 7 -28 -4 -28 -4 -29 29 -19 37 12 44 27 12 27 -11 0
-17 -4 -14 -10 3 -5 1 -10 -5 -10 -9 0 -8 21 4 65 2 6 0 17 -3 26 -5 14 -8 15
-19 3z"/>
<path d="M1725 1625 c-19 -15 -19 -15 10 -13 17 2 29 7 28 13 -3 16 -18 16
-38 0z"/>
<path d="M1757 1591 c-7 -27 3 -35 19 -14 10 15 15 16 38 4 14 -8 23 -18 20
-23 -3 -5 -12 -4 -20 3 -8 6 -17 9 -21 5 -8 -8 -3 -12 23 -20 16 -5 23 0 32
18 10 22 8 24 -24 31 -20 3 -41 8 -48 11 -8 3 -16 -4 -19 -15z"/>
<path d="M1950 1550 c0 -5 -6 -10 -14 -10 -8 0 -16 -6 -19 -14 -7 -18 24 -31
35 -14 9 14 11 48 3 48 -3 0 -5 -4 -5 -10z"/>
<path d="M1878 1543 c-40 -6 -50 -53 -11 -53 13 0 13 3 3 15 -7 8 -8 15 -3 15
5 0 18 7 29 15 10 8 17 14 14 13 -3 0 -17 -3 -32 -5z"/>
<path d="M2116 1525 c-3 -8 -9 -15 -13 -14 -4 1 -17 1 -27 0 -21 -1 -17 -11 6
-15 7 -1 19 -6 27 -10 9 -6 12 -5 8 1 -4 6 0 19 8 29 14 18 14 18 15 -3 0 -13
5 -23 10 -23 14 0 13 23 -2 38 -16 16 -25 15 -32 -3z"/>
<path d="M1990 1471 c0 -17 31 -21 63 -7 l32 14 -47 1 c-27 1 -48 -3 -48 -8z"/>
<path d="M2264 1619 c3 -15 46 -32 46 -19 0 6 -9 10 -19 10 -11 0 -22 5 -24
10 -3 6 -4 5 -3 -1z"/>
<path d="M1609 1533 l-24 -28 28 24 c25 23 32 31 24 31 -2 0 -14 -12 -28 -27z"/>
<path d="M1669 1483 l-24 -28 28 24 c25 23 32 31 24 31 -2 0 -14 -12 -28 -27z"/>
<path d="M1659 1433 c-13 -16 -12 -17 4 -4 9 7 17 15 17 17 0 8 -8 3 -21 -13z"/>
<path d="M2445 1550 c10 -11 20 -20 23 -20 3 0 -3 9 -13 20 -10 11 -20 20 -23
20 -3 0 3 -9 13 -20z"/>
<path d="M2410 1546 c0 -2 8 -10 18 -17 15 -13 16 -12 3 4 -13 16 -21 21 -21
13z"/>
<path d="M2350 1456 c0 -2 8 -10 18 -17 15 -13 16 -12 3 4 -13 16 -21 21 -21
13z"/>
<path d="M1901 1354 c0 -11 3 -14 6 -6 3 7 2 16 -1 19 -3 4 -6 -2 -5 -13z"/>
<path d="M1952 1280 c0 -19 2 -27 5 -17 2 9 2 25 0 35 -3 9 -5 1 -5 -18z"/>
<path d="M2557 2721 c-34 -47 -40 -84 -6 -40 21 28 39 17 39 -26 0 -19 5 -37
10 -40 6 -4 10 8 10 28 0 26 4 34 16 33 9 0 21 7 27 16 9 13 7 22 -8 38 -40
45 -51 43 -88 -9z m83 -18 c0 -17 -21 -17 -45 1 -17 12 -17 16 -6 30 13 15 15
15 32 0 11 -10 19 -23 19 -31z"/>
<path d="M1358 2731 l-36 -27 30 -39 c44 -61 44 -60 83 -31 43 33 40 48 -3 17
-27 -19 -31 -19 -43 -5 -12 14 -9 20 16 40 34 27 22 33 -14 8 -17 -13 -25 -14
-34 -4 -9 9 -5 17 17 36 39 35 29 38 -16 5z"/>
<path d="M2677 2641 c-36 -40 -39 -57 -14 -88 17 -23 52 -14 87 22 43 44 31
60 -13 17 -37 -36 -49 -39 -67 -17 -11 13 -8 21 20 50 18 18 30 39 28 45 -2 7
-20 -6 -41 -29z"/>
<path d="M1280 2665 c0 -6 11 -23 25 -39 14 -16 24 -31 22 -33 -2 -1 -25 4
-51 13 -68 23 -75 7 -21 -46 48 -47 71 -52 29 -6 -14 15 -24 30 -21 32 3 3 24
0 47 -6 62 -17 67 -1 15 50 -25 24 -45 40 -45 35z"/>
<path d="M1154 2535 l-27 -36 44 -39 44 -39 28 30 c15 16 27 34 27 40 0 5 -11
-2 -24 -18 -20 -23 -26 -25 -40 -14 -14 12 -14 15 4 39 27 34 17 41 -12 8 -16
-18 -27 -23 -37 -17 -11 7 -9 15 10 40 12 17 20 33 17 37 -3 3 -18 -11 -34
-31z"/>
<path d="M2768 2522 c-27 -8 -48 -20 -48 -24 0 -5 8 -7 18 -4 26 8 56 -26 47
-53 -12 -39 11 -21 42 33 41 72 33 79 -59 48z m62 -11 c0 -5 -7 -14 -15 -21
-12 -10 -19 -10 -28 -1 -9 9 -9 14 3 21 19 12 40 13 40 1z"/>
<path d="M2858 2428 c-27 -16 -48 -34 -48 -40 0 -5 16 0 35 12 38 24 44 16 19
-31 -27 -54 -14 -61 43 -25 29 18 50 36 46 39 -3 4 -19 -3 -35 -14 -40 -29
-47 -16 -19 33 12 22 19 44 14 48 -4 4 -29 -6 -55 -22z"/>
<path d="M1085 2440 c-4 -7 5 -25 21 -41 33 -34 27 -45 -17 -30 -24 8 -36 8
-46 -1 -16 -13 -14 -16 50 -52 26 -15 47 -23 47 -17 0 5 -16 19 -36 30 -46 28
-39 36 14 17 55 -20 64 -4 21 40 -38 39 -32 43 18 13 19 -12 36 -19 39 -16 6
5 -63 52 -91 63 -7 3 -16 0 -20 -6z"/>
<path d="M2965 2259 c-11 -5 -33 -13 -48 -19 -16 -5 -25 -14 -22 -20 4 -7 13
-7 26 0 16 9 21 7 31 -14 13 -30 43 -42 63 -26 18 15 19 31 3 65 -12 27 -21
29 -53 14z m40 -39 c0 -31 -21 -37 -35 -9 -10 17 -9 23 1 30 21 13 34 5 34
-21z"/>
<path d="M985 2240 c-3 -5 6 -12 20 -16 27 -7 30 -15 15 -45 -8 -14 -17 -18
-35 -13 -48 12 -24 -13 28 -29 62 -20 67 -20 67 -8 0 5 -11 12 -25 15 -27 7
-30 17 -15 46 8 16 15 18 35 10 16 -6 25 -6 25 0 0 6 -1 10 -2 10 -2 0 -26 9
-55 20 -31 11 -55 16 -58 10z"/>
<path d="M3015 2133 c-11 -2 -34 -9 -51 -14 -31 -10 -31 -10 -21 -54 6 -24 14
-42 18 -39 4 2 3 19 -2 36 -6 23 -5 34 4 40 20 13 23 10 40 -29 l16 -38 -5 34
c-9 52 16 60 39 13 12 -25 16 -29 12 -12 -2 14 -5 35 -5 48 0 22 -6 24 -45 15z"/>
<path d="M991 2077 c-30 -7 -56 -17 -58 -22 -3 -10 94 -75 112 -75 4 0 0 8 -9
19 -19 21 -13 71 9 71 8 0 17 5 20 10 7 12 -4 12 -74 -3z m23 -25 c2 -4 1 -14
-3 -21 -7 -10 -12 -10 -30 0 -11 8 -21 17 -21 21 0 11 47 10 54 0z"/>
<path d="M2975 1990 c-18 -8 -17 -9 7 -9 40 -1 44 -19 12 -52 -31 -33 -29 -49
3 -19 18 17 23 17 33 5 30 -36 66 -3 56 50 -7 34 -9 35 -49 34 -23 0 -51 -4
-62 -9z m95 -41 c0 -24 -4 -30 -17 -27 -11 2 -19 14 -21 31 -3 22 1 27 17 27
17 0 21 -6 21 -31z"/>
<path d="M1030 1930 l-5 -35 -52 3 c-31 2 -53 0 -53 -6 0 -8 107 -23 118 -16
2 1 2 22 0 45 -4 44 -4 44 -8 9z"/>
<path d="M2969 1833 c-13 -35 -1 -57 34 -61 21 -3 26 2 32 27 8 36 22 48 38
32 9 -9 8 -16 -1 -31 -16 -27 -15 -35 3 -20 28 23 13 80 -22 80 -12 0 -23 -18
-37 -62 -3 -11 -11 -15 -21 -12 -17 7 -20 39 -5 49 13 8 13 25 0 25 -6 0 -15
-12 -21 -27z"/>
<path d="M950 1827 c-20 -10 -25 -20 -25 -52 0 -34 4 -41 28 -49 17 -6 37 -6
55 0 22 7 28 16 30 45 4 52 -40 80 -88 56z m74 -29 c17 -27 -5 -52 -47 -56
-32 -3 -37 0 -43 24 -5 20 -2 31 12 41 24 18 64 13 78 -9z"/>
<path d="M2960 1730 c0 -8 21 -13 98 -24 12 -2 22 1 22 5 0 9 -19 14 -82 23
-21 2 -38 1 -38 -4z"/>
<path d="M1014 1669 c-31 -31 -32 -31 -58 -14 -14 10 -26 13 -26 7 0 -6 17
-21 37 -33 36 -22 36 -23 13 -29 -13 -3 -25 -11 -27 -17 -3 -7 13 -7 53 3 63
14 80 24 41 24 -36 0 -43 17 -17 45 34 36 19 49 -16 14z"/>
<path d="M2950 1659 c-18 -34 -9 -64 22 -67 21 -3 30 3 43 28 9 17 21 30 27
28 19 -7 20 -25 2 -42 -9 -9 -13 -20 -9 -24 9 -9 35 27 35 49 0 22 -24 41 -42
34 -9 -3 -21 -17 -28 -31 -14 -24 -34 -32 -44 -15 -9 14 4 41 20 41 8 0 14 5
14 10 0 18 -29 10 -40 -11z"/>
<path d="M1075 1540 c11 -45 10 -54 -7 -58 -12 -2 -21 5 -28 22 -13 35 -21 33
-18 -5 4 -43 -19 -49 -33 -9 -6 17 -13 29 -16 26 -3 -2 0 -21 7 -41 13 -40 22
-41 97 -10 38 16 39 19 12 65 -16 27 -19 29 -14 10z"/>
<path d="M2906 1494 c-22 -21 -20 -29 10 -53 34 -26 80 -27 93 -2 13 23 -3 46
-42 61 -37 13 -43 13 -61 -6z m83 -29 c26 -26 0 -39 -43 -21 -48 20 -51 51 -4
42 18 -4 39 -13 47 -21z"/>
<path d="M1081 1426 c-8 -9 -10 -28 -5 -50 5 -28 3 -36 -9 -36 -18 0 -29 24
-21 45 4 8 1 15 -5 15 -16 0 -13 -56 4 -70 8 -6 23 -9 36 -5 18 6 20 12 15 45
-7 43 6 59 30 39 10 -8 13 -21 9 -37 -4 -15 -2 -21 5 -17 16 10 12 50 -8 68
-23 21 -36 21 -51 3z"/>
<path d="M2856 1395 c-11 -19 -16 -38 -12 -42 4 -4 9 3 13 15 7 28 20 28 29 0
10 -35 33 -56 54 -51 23 6 36 41 21 56 -8 8 -11 3 -11 -17 0 -20 -4 -27 -16
-24 -17 3 -22 10 -45 66 l-14 33 -19 -36z"/>
<path d="M1190 1245 c-6 -8 -9 -23 -5 -34 9 -29 36 -35 58 -13 16 16 17 23 8
41 -13 24 -43 28 -61 6z"/>
<path d="M2746 1244 c-21 -20 -20 -27 3 -48 36 -33 83 18 49 52 -16 16 -33 15
-52 -4z"/>
<path d="M1378 1083 c-27 -33 -49 -73 -39 -73 5 0 11 4 13 9 2 5 12 11 23 13
17 2 20 -2 17 -29 -2 -17 2 -34 7 -38 7 -4 11 8 11 34 0 34 4 41 28 50 24 10
23 11 -15 6 -47 -6 -52 -1 -26 27 9 10 12 18 6 18 -5 0 -17 -8 -25 -17z"/>
<path d="M2475 1020 c-15 -16 -17 -26 -9 -47 13 -36 37 -49 70 -38 38 14 53
40 33 60 -13 14 -17 14 -34 0 -20 -16 -19 -16 3 -10 32 9 29 -22 -4 -37 -22
-11 -28 -10 -40 7 -21 28 -18 63 6 70 11 3 24 3 30 0 5 -3 10 -1 10 4 0 19
-46 12 -65 -9z"/>
<path d="M1473 1015 c-32 -23 -35 -54 -8 -81 30 -30 40 -30 70 1 32 31 31 48
-1 74 -32 25 -34 25 -61 6z m51 -11 c19 -7 21 -45 4 -62 -17 -17 -58 -15 -65
4 -8 21 13 64 31 64 8 0 21 -3 30 -6z"/>
<path d="M1580 979 c0 -5 7 -9 15 -9 19 0 19 1 -5 -54 -24 -57 -10 -62 15 -5
14 30 23 39 37 36 34 -9 18 10 -22 26 -22 8 -40 11 -40 6z"/>
<path d="M2425 959 c21 -40 13 -46 -23 -20 -55 39 -65 26 -31 -40 22 -44 37
-48 18 -5 -17 36 -6 42 29 17 28 -20 52 -27 52 -16 0 13 -45 95 -52 95 -5 0
-1 -14 7 -31z"/>
<path d="M2323 905 c11 -50 11 -52 -18 -57 -16 -2 -23 6 -33 40 -8 23 -18 42
-24 42 -10 0 -4 -28 16 -70 13 -29 43 -36 70 -17 18 13 18 18 6 61 -16 59 -31
60 -17 1z"/>
<path d="M1662 901 c-34 -42 -42 -62 -17 -41 19 16 65 -2 65 -25 0 -8 4 -15 9
-15 5 0 8 12 6 28 -2 15 -4 42 -4 60 -1 43 -20 41 -59 -7z m48 -6 c0 -15 -6
-25 -14 -25 -22 0 -30 19 -16 35 18 22 30 18 30 -10z"/>
<path d="M2162 911 c-28 -7 -27 -4 -18 -64 7 -44 10 -48 29 -43 12 3 28 6 35
6 21 0 34 42 23 71 -10 29 -33 38 -69 30z m54 -36 c9 -36 -2 -55 -30 -55 -19
0 -25 6 -29 33 -6 40 -2 47 28 47 18 0 26 -7 31 -25z"/>
<path d="M1805 898 c-15 -49 -15 -86 1 -92 46 -18 99 9 75 37 -8 10 -7 17 2
26 9 10 8 15 -7 27 -24 17 -65 18 -71 2z m49 -4 c9 -3 16 -13 16 -21 0 -21
-44 -12 -48 10 -4 18 6 21 32 11z m12 -55 c10 -17 -12 -32 -40 -25 -17 4 -23
11 -20 21 7 17 50 20 60 4z"/>
<path d="M1925 848 c-25 -51 -26 -77 -2 -44 14 19 54 17 67 -4 5 -8 11 -12 13
-10 7 7 -36 110 -45 110 -5 0 -19 -23 -33 -52z m45 -4 c0 -8 -7 -14 -15 -14
-15 0 -21 21 -9 33 10 9 24 -2 24 -19z"/>
<path d="M2021 883 c0 -10 4 -36 8 -58 l9 -40 1 40 2 40 34 -39 c19 -22 37
-37 40 -34 8 8 -6 108 -14 108 -4 0 -5 -16 -3 -35 5 -44 -7 -44 -37 0 -26 38
-41 45 -40 18z"/>
</g>
</svg>
